<svg width="97" height="32" viewBox="0 0 97 32" fill="none" xmlns="http://www.w3.org/2000/svg">
    <path d="M47.8335 22.3999V18.5215H52.0575C54.9183 18.5215 56.8767 16.8703 56.8767 14.0287C56.8767 11.1679 54.9183 9.53595 52.0575 9.53595H45.7599V22.3999H47.8335ZM51.8655 11.3983C53.8047 11.3983 54.8031 12.1279 54.8031 14.0287C54.8031 15.9295 53.8047 16.6591 51.8655 16.6591H47.8335V11.3983H51.8655Z" fill="#14342B"/>
    <path d="M60.5737 11.7439V9.53595H58.5001V11.7439H60.5737ZM60.5737 22.3999V12.8575H58.5001V22.3999H60.5737Z" fill="#14342B"/>
    <path d="M67.697 22.5919C70.5578 22.5919 72.6506 20.9791 72.6506 18.5983V18.3871H70.5962V18.5215C70.5962 19.9999 69.521 20.7295 67.6586 20.7295C65.5083 20.7295 64.5483 19.6927 64.5483 17.6383C64.5483 15.5455 65.5083 14.5279 67.6586 14.5279C69.521 14.5279 70.5962 15.2575 70.5962 16.7359V16.8511H72.6506V16.6591C72.6506 14.2783 70.5578 12.6655 67.697 12.6655C64.5483 12.6655 62.4939 14.6623 62.4939 17.6383C62.4939 20.5759 64.5483 22.5919 67.697 22.5919Z" fill="#14342B"/>
    <path d="M76.6417 22.3999V18.5023H79.3681L82.1905 22.3999H84.6289L81.0577 17.4463L84.6481 12.8575H82.2289L79.3681 16.6399H76.6417V9.53595H74.5681V22.3999H76.6417Z" fill="#14342B"/>
    <path d="M90.9289 22.5919C94.1161 22.5919 96.2472 20.5759 96.2472 17.6383C96.2472 14.6623 94.1161 12.6655 90.9289 12.6655C87.7609 12.6655 85.6297 14.6623 85.6297 17.6383C85.6297 20.5759 87.7609 22.5919 90.9289 22.5919ZM90.9289 20.7487C88.6249 20.7487 87.6649 19.6543 87.6649 17.6383C87.6649 15.6031 88.6249 14.4895 90.9289 14.4895C93.2521 14.4895 94.2121 15.6031 94.2121 17.6383C94.2121 19.6543 93.2521 20.7487 90.9289 20.7487Z" fill="#14342B"/>
    <path d="M31.5999 15.9999C31.8209 15.9999 32.0005 16.1791 31.9949 16.3999C31.9054 19.9809 30.6164 23.4327 28.3282 26.1987C25.9549 29.0675 22.6554 31.0188 18.9981 31.7165C15.3408 32.4142 11.5546 31.8145 8.29193 30.0208C5.02921 28.2271 2.4942 25.3517 1.12358 21.8899C-0.247046 18.4281 -0.367453 14.5967 0.783096 11.0557C1.93364 7.51465 4.28311 4.48574 7.42676 2.49072C10.5704 0.495698 14.3114 -0.340513 18.0053 0.126134C21.5668 0.57605 24.8694 2.20991 27.386 4.75904C27.5412 4.91625 27.5329 5.1698 27.3719 5.32102L23.9895 8.49732C23.1843 9.25345 21.9273 9.1905 21.0117 8.57268C19.8555 7.79251 18.525 7.28773 17.123 7.11061C15.0544 6.84929 12.9594 7.31756 11.199 8.43478C9.43853 9.55199 8.12283 11.2482 7.47852 13.2312C6.83421 15.2141 6.90164 17.3597 7.66919 19.2983C8.43674 21.2369 9.85635 22.8472 11.6835 23.8516C13.5106 24.8561 15.6308 25.1919 17.6789 24.8012C19.727 24.4105 21.5747 23.3178 22.9038 21.7112C23.8046 20.6224 24.4289 19.3436 24.7377 17.9834C24.9822 16.9063 25.8554 15.9999 26.96 15.9999H31.5999Z" fill="#DBFF01"/>
    <circle cx="27.9999" cy="11.2" r="3.99999" fill="#FEB64A"/>
    </svg>
    